# xmcd
#
# Track frame offsets:
#	150
#	2981
#	19478
#	28835
#	44290
#	59523
#	71889
#	88077
#	103341
#	117519
#	132865
#	141719
#	154407
#	167091
#	181726
#	195525
#
# Disc length: 2797 seconds
#
# Revision: 0
# Processed by: cddbd v1.4PL0 Copyright (c) Steve Scherf et al.
# Submitted via: dBpowerAMP V4.0
#
DISCID=f50aeb10
DTITLE=Елена Ваенга - Портрет
DYEAR=2003
DGENRE=Chanson
TTITLE0=Интро
TTITLE1=Ордынка
TTITLE2=Весточки
TTITLE3=Оловянное сердце
TTITLE4=Цыган
TTITLE5=Коломбина
TTITLE6=Кокаин
TTITLE7=Мы попали с тобой под дождь
TTITLE8=Портрет
TTITLE9=Ты едешь, бледная...
TTITLE10=Разговор
TTITLE11=Пиковая дама
TTITLE12=Блюз
TTITLE13=Посмотри
TTITLE14=Реснички
TTITLE15=Романс
EXTD=Submited by Vitaliy Chikharin (VCH)
EXTT0=
EXTT1=
EXTT2=
EXTT3=
EXTT4=
EXTT5=
EXTT6=
EXTT7=
EXTT8=
EXTT9=
EXTT10=
EXTT11=
EXTT12=
EXTT13=
EXTT14=
EXTT15=
PLAYORDER=
